HIERARCHY
ROOT Hips
{
	OFFSET 0.000000 88.474243 0.000000
	CHANNELS 6 Xposition Yposition Zposition Zrotation Yrotation Xrotation 
	JOINT Hips_Spine
	{
		OFFSET 0.000000 0.000000 0.000000
		CHANNELS 3 Zrotation Yrotation Xrotation
		JOINT Spine
		{
			OFFSET 0.005100 8.711998 -0.691000
			CHANNELS 3 Zrotation Yrotation Xrotation
			JOINT Spine1
			{
				OFFSET -0.009200 8.660301 -1.275000
				CHANNELS 3 Zrotation Yrotation Xrotation
				JOINT Spine2
				{
					OFFSET 0.006300 9.852501 -1.857000
					CHANNELS 3 Zrotation Yrotation Xrotation
					JOINT Spine2_Neck
					{
						OFFSET 0.000000 0.000000 0.000000
						CHANNELS 3 Zrotation Yrotation Xrotation
						JOINT Neck
						{
							OFFSET 0.016300 11.420799 -0.263300
							CHANNELS 3 Zrotation Yrotation Xrotation
							End Site #name: Head
							{
								OFFSET -0.019200 9.262405 2.362500
							}
						}
					}
					JOINT Spine2_LeftShoulder
					{
						OFFSET 0.000000 0.000000 0.000000
						CHANNELS 3 Zrotation Yrotation Xrotation
						JOINT LeftShoulder
						{
							OFFSET 5.616900 6.732201 -0.345700
							CHANNELS 3 Zrotation Yrotation Xrotation
							JOINT LeftArm
							{
								OFFSET 10.664888 -0.183372 -2.440700
								CHANNELS 3 Zrotation Yrotation Xrotation
								JOINT LeftForeArm
								{
									OFFSET 27.459126 0.000000 0.000000
									CHANNELS 3 Zrotation Yrotation Xrotation
									End Site #name: LeftHand
									{
										OFFSET 21.306858 0.000000 0.000000
									}
								}
							}
						}
					}
					JOINT Spine2_RightShoulder
					{
						OFFSET 0.000000 0.000000 0.000000
						CHANNELS 3 Zrotation Yrotation Xrotation
						JOINT RightShoulder
						{
							OFFSET -5.580300 6.737503 -0.344400
							CHANNELS 3 Zrotation Yrotation Xrotation
							JOINT RightArm
							{
								OFFSET -10.679335 -0.188484 -2.383900
								CHANNELS 3 Zrotation Yrotation Xrotation
								JOINT RightForeArm
								{
									OFFSET -27.503529 0.000000 0.000000
									CHANNELS 3 Zrotation Yrotation Xrotation
									End Site #name: RightHand
									{
										OFFSET -21.306808 0.000000 0.000000
									}
								}
							}
						}
					}
				}
			}
		}
	}
	JOINT Hips_LeftUpLeg
	{
		OFFSET 0.000000 0.000000 0.000000
		CHANNELS 3 Zrotation Yrotation Xrotation
		JOINT LeftUpLeg
		{
			OFFSET 6.857700 -6.739601 0.312100
			CHANNELS 3 Zrotation Yrotation Xrotation
			JOINT LeftLeg
			{
				OFFSET -0.367590 -34.731552 -4.572400
				CHANNELS 3 Zrotation Yrotation Xrotation
				End Site #name: LeftFoot
				{
					OFFSET 0.367590 -34.656704 -6.067400
				}
			}
		}
	}
	JOINT Hips_RightUpLeg
	{
		OFFSET 0.000000 0.000000 0.000000
		CHANNELS 3 Zrotation Yrotation Xrotation
		JOINT RightUpLeg
		{
			OFFSET -6.876100 -6.733299 0.301000
			CHANNELS 3 Zrotation Yrotation Xrotation
			JOINT RightLeg
			{
				OFFSET 0.347353 -34.795158 -4.515900
				CHANNELS 3 Zrotation Yrotation Xrotation
				End Site #name: RightFoot
				{
					OFFSET -0.347353 -34.589367 -6.070300
				}
			}
		}
	}
}
MOTION
Frames: 7
Frame Time: 0.041667
0.053183 0.001737 -0.087434 -8.598652 66.113544 -5.544782 -0.000000 -0.000000 0.000000 -4.067596 1.559311 0.663184 1.177420 -0.423984 3.995770 0.000000 0.000000 0.000000 1.545604 -0.896832 0.822391 -1.613209 -5.188065 -1.235706 0.786302 -0.188817 1.279939 -14.665446 3.091541 0.269427 -68.605135 0.271308 7.248319 0.008797 -12.957739 2.308500 0.405833 -0.900076 2.981396 17.815260 13.432881 5.031942 46.846264 9.131809 -25.429318 -158.328053 84.089691 -154.188327 0.000000 -0.000000 -0.000000 -1.742148 14.655956 -18.126203 -5.473659 -22.957604 3.172477 0.000000 -0.000000 -0.000000 -0.942567 -15.930807 -14.576029 -9.474853 -7.856889 15.837859 
0.106546 -0.129444 -0.114920 -5.372638 60.231948 0.002120 -0.000000 -0.000000 0.000000 -6.711053 -2.217863 3.623004 2.008420 -0.471951 2.846195 0.000000 0.000000 0.000000 1.686824 -0.757761 2.531174 -0.773987 -7.913804 -2.191773 1.149349 -0.523044 1.307935 -10.134248 -4.655841 1.266381 -74.277332 -10.393412 2.183659 -1.575540 -4.989373 1.234964 1.779889 -1.110214 2.903833 22.407285 14.085628 4.375514 50.982340 11.335999 -22.087495 -172.614716 83.814458 -168.555396 0.000000 -0.000000 -0.000000 -1.247232 14.439335 -19.338586 -4.811053 -20.097803 1.855358 0.000000 -0.000000 -0.000000 -1.902981 -14.217566 -14.262252 -5.976061 -4.250203 15.965722 
0.231095 -0.182004 -0.099384 -6.026164 59.581070 -0.042538 -0.000000 -0.000000 0.000000 -5.661702 -6.255117 4.178191 2.444623 -0.821080 2.828538 0.000000 0.000000 0.000000 2.324268 -1.104472 3.348520 -0.625435 -11.261233 -2.769449 1.336919 -0.695231 1.336880 -9.085998 -3.567129 0.442852 -74.057964 -12.179108 -1.990536 -1.304839 4.190647 0.955496 2.134201 -1.206971 3.135102 24.781711 15.701862 5.021872 50.078030 11.898758 -20.148746 -173.782201 81.807558 -168.988532 0.000000 -0.000000 -0.000000 -0.291067 15.506846 -19.035157 -4.720948 -19.453088 2.419524 0.000000 -0.000000 -0.000000 -1.713932 -15.994879 -13.160092 -4.239040 -2.669921 15.911739 
0.339294 -0.258703 -0.111995 -7.953563 60.738979 -2.710083 -0.000000 -0.000000 0.000000 -2.835857 -10.212802 4.490285 2.379440 -1.196420 3.125165 0.000000 0.000000 0.000000 2.394732 -1.318876 3.968133 -0.737099 -12.448479 -3.136743 1.334229 -0.892259 1.429029 -8.604656 -2.856725 -0.079205 -75.772901 -14.954680 -4.630844 -1.381177 8.750262 0.803132 2.067043 -1.667099 3.425646 24.674347 15.489822 5.032658 48.708562 14.480679 -23.660536 -177.710872 73.541296 -172.671440 0.000000 -0.000000 -0.000000 0.314386 16.436710 -17.966058 -4.213752 -19.825592 2.234158 -0.000000 -0.000000 -0.000000 -1.348921 -19.468811 -12.236221 -4.348459 -1.744509 15.692063 
0.430846 -0.324502 -0.149207 -9.011226 61.371034 -4.270608 -0.000000 -0.000000 0.000000 -0.867689 -11.635990 4.560817 1.969913 -1.398937 3.383088 0.000000 0.000000 0.000000 2.243997 -1.419330 4.423085 -1.070135 -13.130267 -2.503310 1.105668 -1.023387 1.626779 -8.231913 -1.718715 -0.794640 -76.277198 -16.643716 -4.499247 -1.345409 10.810438 0.900299 1.729949 -1.945947 3.674062 24.552615 14.364369 4.587538 49.318989 16.227716 -25.973756 -178.937077 68.417596 -174.064178 0.000000 -0.000000 -0.000000 0.578094 17.167587 -17.263320 -3.944994 -20.343401 2.141736 -0.000000 -0.000000 -0.000000 -0.934239 -21.436501 -11.520480 -5.929536 -2.186281 15.390323 
0.519297 -0.364926 -0.198263 -9.395621 61.454742 -4.639180 -0.000000 -0.000000 0.000000 0.463854 -11.350721 4.678533 1.398353 -1.471668 3.539728 0.000000 0.000000 0.000000 1.963452 -1.427456 4.744961 -0.965927 -13.695627 -1.894933 0.839326 -1.150001 1.911719 -7.918052 -1.647077 -0.796446 -76.250682 -17.237471 -3.484445 -1.259528 10.726728 1.083906 1.426532 -2.099769 3.732464 24.730680 13.763400 4.258699 51.249104 15.346186 -24.779549 -178.655799 70.028889 -173.963316 0.000000 0.000000 -0.000000 0.564366 17.119894 -17.231244 -3.886973 -20.543970 2.253052 -0.000000 -0.000000 -0.000000 -0.519458 -22.667004 -11.331249 -7.711854 -3.421077 15.263413 
0.605778 -0.390315 -0.254508 -9.409725 61.441327 -4.218028 -0.000000 -0.000000 0.000000 1.688413 -10.414128 4.538737 0.987791 -1.431395 3.636980 0.000000 0.000000 0.000000 1.679357 -1.362115 4.963320 -0.659145 -14.005441 -1.532814 0.656673 -1.188649 2.116243 -7.696537 -2.051673 -0.479426 -76.095628 -17.106597 -2.591650 -1.139356 9.557136 1.740087 1.163280 -2.165312 3.695248 24.987271 13.887351 4.296109 53.321584 13.081142 -22.398577 -177.147280 74.900554 -172.590567 0.000000 0.000000 -0.000000 0.457140 16.566969 -17.479939 -3.824464 -20.753202 2.053513 -0.000000 -0.000000 -0.000000 -0.167564 -23.930966 -11.500059 -9.331781 -4.976296 15.377618 
